PathFileType	4	(X/Y/Z)	Run_300 02
DataRate	CameraRate	NumFrames	NumMarkers	Units	OrigDataRate	OrigDataStartFrame	OrigNumFrames
120	120	6	42	mm	120	252	128
Frame#	Time	LASI			RASI			LPSI			RPSI			RTH1			RTH2			RTH3			LTH1			LTH2			LTH3			RTB1			RTB2			LTB1			LTB2			LTB3			RCAL			RTOE			RMT5			LCAL			LTOE			LMT5			LACR			RACR			CLAV			C7			RUA1			RUA2			RUA3			RLEL			RMEL			LUA1			LUA2			LUA3			LLEL			LMEL			RFAsuperior			RFAradius			RFAulna			LFAsuperior			LFAradius			LFAulna			RTB3		
		X1	Y1	Z1	X2	Y2	Z2	X3	Y3	Z3	X4	Y4	Z4	X5	Y5	Z5	X6	Y6	Z6	X7	Y7	Z7	X8	Y8	Z8	X9	Y9	Z9	X10	Y10	Z10	X11	Y11	Z11	X12	Y12	Z12	X13	Y13	Z13	X14	Y14	Z14	X15	Y15	Z15	X16	Y16	Z16	X17	Y17	Z17	X18	Y18	Z18	X19	Y19	Z19	X20	Y20	Z20	X21	Y21	Z21	X22	Y22	Z22	X23	Y23	Z23	X24	Y24	Z24	X25	Y25	Z25	X26	Y26	Z26	X27	Y27	Z27	X28	Y28	Z28	X29	Y29	Z29	X30	Y30	Z30	X31	Y31	Z31	X32	Y32	Z32	X33	Y33	Z33	X34	Y34	Z34	X35	Y35	Z35	X36	Y36	Z36	X37	Y37	Z37	X38	Y38	Z38	X39	Y39	Z39	X40	Y40	Z40	X41	Y41	Z41	X42	Y42	Z42	

252	  2.100000	898.696293	1033.865422	-447.845881	855.101505	1049.678912	-190.191446	709.215393	1077.504444	-394.004056	694.608787	1079.379920	-314.341857	777.877393	883.660839	-150.298497	824.747877	771.183929	-158.274780	749.960893	661.942931	-202.879564	907.556454	836.216695	-496.851829	1022.065582	760.411576	-477.122988	1012.858951	639.065906	-460.270038	752.498823	365.168505	-296.135184	699.739641	311.026688	-236.099157	1009.823861	443.779461	-395.659575	924.688382	415.840744	-452.466507	842.854904	328.603207	-397.472933	471.668086	132.188194	-335.435793	696.553493	 66.854728	-352.007743	621.626597	 49.257805	-260.200886	666.314084	327.958513	-384.912845	801.248908	136.643366	-397.543512	736.357968	184.547686	-479.160706	919.762223	1505.469181	-506.541877	913.810143	1511.866751	-162.560359	959.230144	1451.110390	-298.258212	839.184712	1549.371222	-329.764897	899.605468	1414.015064	-76.643014	909.247622	1323.546249	-73.678160	844.852077	1317.295048	-28.287974	847.213387	1189.362005	 33.383370	808.887990	1163.285698	-38.010863	878.319659	1427.694437	-584.615160	867.529198	1355.748388	-583.066102	770.917120	1376.151677	-590.031009	719.827949	1228.249016	-654.978963	666.022510	1231.776540	-585.596672	953.649902	1190.831984	  3.913522	1084.331822	1191.716498	-120.333573	1096.489630	1149.498355	-62.766099	804.074639	1188.948586	-621.024742	921.192706	1141.146481	-492.939541	908.555611	1080.606752	-529.733534	657.465288	227.975277	-312.690318	
253	  2.108333	899.459801	1040.337530	-447.345751	856.631363	1053.018986	-189.728991	710.260017	1084.258913	-393.420252	696.280237	1085.269412	-313.365007	775.323295	887.709191	-151.330732	817.857740	773.750881	-160.306589	737.982719	667.583603	-204.460615	909.992645	844.833647	-497.521968	1025.836791	771.589178	-477.155147	1018.497462	649.629118	-460.597754	732.166288	369.398709	-297.153590	678.500149	316.194354	-236.924963	1024.604372	449.587049	-395.414278	941.566730	415.388908	-451.613047	866.557281	322.477039	-396.028059	450.291119	140.013582	-334.859531	672.401896	 66.401226	-351.937760	596.957478	 50.495713	-261.121035	690.658776	307.968772	-382.640888	840.657637	128.102897	-395.220191	771.554725	170.282243	-476.582459	917.868515	1511.817349	-507.248032	916.558293	1519.512748	-164.127031	960.743234	1458.335859	-299.991485	839.799356	1555.146098	-330.013586	904.117901	1422.130641	-78.071738	914.390903	1331.679890	-75.813198	851.086154	1325.121748	-28.758519	854.744063	1196.470272	 31.713431	814.947843	1170.725182	-39.337278	873.701864	1437.024066	-585.463364	862.564328	1365.034293	-584.920294	766.030721	1386.270880	-588.447231	710.996724	1239.980208	-654.133439	658.946460	1243.934334	-583.403455	960.101583	1201.720652	 -0.539896	1086.760143	1209.691160	-128.681639	1101.905672	1166.881263	-72.189508	795.134729	1199.524733	-622.371284	914.827248	1152.106636	-495.661016	901.398045	1091.443461	-532.046509	635.761309	232.975818	-312.935025	
254	  2.116667	900.358879	1047.180371	-446.984596	858.881057	1056.757608	-189.772774	711.360071	1091.414860	-392.946048	698.342825	1091.366923	-312.294353	773.638403	891.979026	-152.313293	811.482116	776.887348	-162.293916	726.743402	673.862528	-205.787775	912.133838	853.450089	-498.149709	1028.911733	782.451153	-477.220311	1022.802432	659.637779	-460.963762	712.397888	374.681408	-297.839789	658.038196	322.348439	-237.254056	1038.175873	455.523497	-394.829444	958.206777	414.380059	-450.874260	890.487209	316.331395	-394.318645	430.056904	149.014461	-334.163634	648.597386	 65.811725	-351.727666	572.697756	 52.215580	-261.928583	716.508726	287.812408	-380.346631	880.441579	120.685947	-392.223259	807.846385	156.388979	-473.590424	916.543968	1518.340392	-507.831960	919.418522	1527.275697	-165.769699	962.305115	1465.692444	-301.773994	840.584834	1561.174124	-330.378130	908.536593	1430.357596	-79.598283	919.067568	1339.987894	-77.904705	856.576891	1333.079310	-29.582105	861.510181	1203.972108	 30.004253	820.237380	1178.445971	-40.597920	870.136294	1446.250351	-586.095354	858.248415	1374.334729	-586.303977	761.865955	1396.513297	-586.325040	702.715399	1251.866789	-652.854639	652.307288	1256.266038	-580.709360	965.662100	1212.726102	 -5.052196	1087.891177	1227.164161	-136.775860	1105.920235	1183.857470	-81.531513	786.802741	1210.238476	-622.969576	909.003119	1162.942938	-498.232759	894.479097	1102.036583	-533.992213	614.875937	238.901257	-312.742767	
255	  2.125000	901.416787	1054.452445	-446.883580	861.790638	1060.780641	-190.263222	712.538470	1098.838676	-392.449259	700.736761	1097.594096	-311.124955	772.639414	896.381381	-153.231258	805.721402	780.657341	-164.126207	716.356648	680.704685	-206.730954	914.092247	862.017622	-498.772377	1031.289908	792.763075	-477.300422	1025.732156	668.867822	-461.279525	693.395777	380.821841	-298.087273	638.460172	329.349739	-237.083311	1050.484253	461.192327	-393.975353	974.533414	412.858454	-450.250273	914.521717	310.300234	-392.391292	411.058851	158.994306	-333.438919	625.166034	 65.152507	-351.487450	548.904840	 54.392909	-262.570617	743.644243	267.740133	-378.234863	920.497806	114.570725	-388.469912	845.264094	143.027489	-470.106035	915.701767	1524.906925	-508.410237	922.334638	1535.047565	-167.486907	963.857880	1473.026428	-303.595869	841.506187	1567.355894	-330.835061	912.731779	1438.612049	-81.184876	923.319055	1348.338881	-79.932893	861.355498	1341.066597	-30.732263	867.489006	1211.757591	 28.290003	824.806490	1186.335567	-41.782893	867.568627	1455.099697	-586.548634	854.591853	1383.451287	-587.240405	758.344020	1406.774764	-583.822884	695.093713	1263.761997	-651.154222	646.248891	1268.575310	-577.625931	970.325230	1223.744857	 -9.556902	1087.848927	1243.938001	-144.556207	1108.678272	1200.354233	-90.624361	779.192699	1221.068684	-622.851517	903.731266	1173.510476	-500.587600	887.880441	1112.293738	-535.536990	595.051991	245.539445	-312.151167	
256	  2.133333	902.657325	1062.140922	-447.180987	865.262912	1064.955084	-191.098642	713.943793	1106.289362	-391.706000	703.385806	1103.860430	-309.852779	772.170683	900.891729	-153.997338	800.676142	785.004352	-165.727102	706.921522	688.017762	-207.216242	915.933540	870.545090	-499.446119	1032.950665	802.207072	-477.430224	1027.216940	677.046476	-461.301440	675.400507	387.642419	-297.874734	619.852662	337.085511	-236.490813	1061.548587	466.199358	-393.133751	990.384854	410.876785	-449.724486	938.498378	304.478959	-390.410519	393.456313	169.833034	-332.728494	602.035035	 64.486797	-351.273277	525.575180	 56.966847	-263.005071	771.806218	247.910697	-376.531602	960.697282	110.039505	-383.899570	883.748116	130.313001	-465.831826	915.291216	1531.349464	-509.121617	925.221096	1542.723669	-169.273524	965.351533	1480.218205	-305.413253	842.524230	1573.563227	-331.374261	916.601601	1446.822476	-82.805491	927.192572	1356.622655	-81.864639	865.466140	1349.032963	-32.183255	872.669068	1219.686339	 26.588351	828.713526	1194.284594	-42.915067	865.816038	1463.347390	-586.843431	851.543654	1392.195403	-587.804947	755.398727	1416.929698	-581.136231	688.199999	1275.484752	-649.098574	641.095839	1280.622628	-574.349524	974.100737	1234.652142	-13.961170	1086.768531	1259.850639	-152.028596	1110.338014	1216.298970	-99.290855	772.335004	1231.880026	-622.283149	899.035763	1183.632542	-502.661248	881.676447	1122.119190	-536.652480	576.484545	252.709322	-311.229369	
257	  2.141667	904.067742	1070.081210	-447.947452	869.174447	1069.169598	-192.138870	715.745888	1113.498067	-390.584799	706.228056	1110.059756	-308.481831	772.113362	905.521765	-154.486284	796.352084	789.750951	-167.036324	698.510982	695.696780	-207.261492	917.592469	878.908017	-500.114878	1033.868400	810.397780	-477.681268	1027.231179	683.898808	-460.821050	658.654322	395.047065	-297.288498	602.344559	345.499330	-235.604626	1071.464332	470.293261	-392.552020	1005.603543	408.489968	-449.307821	962.256097	298.917621	-388.579707	377.573120	181.542073	-331.978142	579.089417	 63.842100	-351.048030	502.691690	 59.945696	-263.195930	800.763572	228.434532	-375.427284	1000.795849	107.427494	-378.547168	923.135421	118.463590	-460.575932	915.279993	1537.526910	-510.009700	928.026764	1550.190115	-171.105876	966.753661	1487.166731	-307.159312	843.601973	1579.653711	-331.986340	920.092436	1454.898649	-84.443709	930.718191	1364.748423	-83.650512	868.938076	1356.945575	-33.874632	877.070439	1227.593309	 24.911479	831.979114	1202.178409	-44.019455	864.654278	1470.879092	-587.001017	849.018474	1400.416046	-588.111864	753.021306	1426.808785	-578.440497	682.064023	1286.816054	-646.798930	637.192920	1292.141337	-571.105978	977.019437	1245.302388	-18.197882	1084.794232	1274.790092	-159.225825	1111.051745	1231.584206	-107.408570	766.214631	1242.445748	-621.530896	894.954432	1193.124061	-504.442449	875.964734	1131.401603	-537.361703	559.342027	260.302258	-310.028791	
